<svg xmlns="http://www.w3.org/2000/svg" viewBox="0 0 51.95 52"><defs><style>.cls-1{fill:#5bb75b;}</style></defs><g id="Layer_2" data-name="Layer 2"><g id="Layer_1-2" data-name="Layer 1"><path class="cls-1" d="M30.16,4.25,19.22,10.57C15.49,12.72,11.77,14.88,8,17a.81.81,0,0,0-.46.82c0,1.74,0,3.47,0,5.21a.62.62,0,0,0,.31.66c2.3,1.31,4.59,2.65,6.89,4a1.14,1.14,0,0,0,.28.09c0-1.84,0-3.63,0-5.42a1.06,1.06,0,0,1,.61-1.1Q26.39,15.08,37.11,8.85a.93.93,0,0,1,1.1,0q3.24,1.91,6.51,3.76a.85.85,0,0,1,.51.85q0,6.27,0,12.55c0,.61-.16.6-.64.43A14,14,0,0,0,26.07,36.71,13.55,13.55,0,0,0,28.45,48c.31.43.29.57-.17.83-1.77,1-3.51,2-5.25,3a.71.71,0,0,1-.82,0L.43,39.3A.78.78,0,0,1,0,38.53Q0,26,0,13.48a.81.81,0,0,1,.46-.81Q11.31,6.43,22.13.16a.84.84,0,0,1,1,0c2.14,1.26,4.3,2.49,6.45,3.74Z"/><path class="cls-1" d="M39.6,27.14A12.36,12.36,0,1,0,52,39.55,12.39,12.39,0,0,0,39.6,27.14Zm4.95,9.58c-.91,1.12-1.84,2.24-2.76,3.36l-2.65,3.21c-.5.6-.9.64-1.5.15-1.34-1.1-1.48-1.18-2.82-2.28-.52-.44-.62-1-.27-1.37s.85-.38,1.36,0c1,.84.86.65,1.87,1.51.34.3.51.3.81-.06,1.51-1.88,3-3.73,4.59-5.58.4-.49.86-.59,1.27-.3A.85.85,0,0,1,44.55,36.72Z"/></g></g></svg>