<svg xmlns="http://www.w3.org/2000/svg" viewBox="0 0 51.95 52"><defs><style>.cls-1{fill:#f15f4e;}</style></defs><g id="Layer_2" data-name="Layer 2"><g id="Layer_1-2" data-name="Layer 1"><path class="cls-1" d="M30.16,4.25,19.22,10.57C15.49,12.72,11.77,14.88,8,17a.81.81,0,0,0-.46.82c0,1.74,0,3.47,0,5.21a.62.62,0,0,0,.31.66c2.3,1.31,4.59,2.65,6.89,4a1.14,1.14,0,0,0,.28.09c0-1.84,0-3.63,0-5.42a1.06,1.06,0,0,1,.61-1.1Q26.39,15.08,37.11,8.85a.93.93,0,0,1,1.1,0q3.24,1.91,6.51,3.76a.85.85,0,0,1,.51.85q0,6.27,0,12.55c0,.61-.16.6-.64.43A14,14,0,0,0,26.07,36.71,13.55,13.55,0,0,0,28.45,48c.31.43.29.57-.17.83-1.77,1-3.51,2-5.25,3a.71.71,0,0,1-.82,0L.43,39.3A.78.78,0,0,1,0,38.53Q0,26,0,13.48a.81.81,0,0,1,.46-.81Q11.31,6.43,22.13.16a.84.84,0,0,1,1,0c2.14,1.26,4.3,2.49,6.45,3.74Z"/><path class="cls-1" d="M39.58,32.54a7,7,0,0,0-4.94,11.9,7,7,0,0,0,9.88-9.88A6.71,6.71,0,0,0,39.58,32.54ZM43.33,42a.82.82,0,0,1,.24.61.82.82,0,0,1-.85.85.82.82,0,0,1-.61-.24l-2.53-2.53-2.52,2.53a.84.84,0,0,1-.61.24.82.82,0,0,1-.61-.24.84.84,0,0,1-.24-.61.82.82,0,0,1,.24-.61l2.52-2.53L35.84,37a.85.85,0,0,1,.61-1.46.84.84,0,0,1,.61.24l2.52,2.52,2.53-2.52a.82.82,0,0,1,.61-.24.84.84,0,0,1,.61.24.9.9,0,0,1,0,1.22L40.8,39.5Z"/><path class="cls-1" d="M39.6,27.14A12.36,12.36,0,1,0,52,39.55,12.39,12.39,0,0,0,39.6,27.14Zm8,15.76a8.66,8.66,0,0,1-1.86,2.76,8.7,8.7,0,0,1-9.55,1.86,8.65,8.65,0,0,1-2.77-1.86,8.83,8.83,0,0,1-1.86-2.76,8.6,8.6,0,0,1-.68-3.4,8.42,8.42,0,0,1,.68-3.39,8.65,8.65,0,0,1,4.63-4.63,8.82,8.82,0,0,1,6.79,0,8.83,8.83,0,0,1,2.76,1.86,8.65,8.65,0,0,1,1.86,2.77,8.7,8.7,0,0,1,0,6.79Z"/></g></g></svg>