<svg xmlns="http://www.w3.org/2000/svg" viewBox="0 0 51.95 52"><defs><style>.cls-1{fill:#4b9ed7;}.cls-2{fill:#fff;}</style></defs><g id="Layer_2" data-name="Layer 2"><g id="Layer_1-2" data-name="Layer 1"><path class="cls-1" d="M30.16,4.25,19.22,10.57C15.49,12.72,11.77,14.88,8,17a.81.81,0,0,0-.46.82c0,1.74,0,3.47,0,5.21a.62.62,0,0,0,.31.66c2.3,1.31,4.59,2.65,6.89,4a1.14,1.14,0,0,0,.28.09c0-1.84,0-3.63,0-5.42a1.06,1.06,0,0,1,.61-1.1Q26.39,15.08,37.11,8.85a.93.93,0,0,1,1.1,0q3.24,1.91,6.51,3.76a.85.85,0,0,1,.51.85q0,6.27,0,12.55c0,.61-.16.6-.64.43A14,14,0,0,0,26.07,36.71,13.55,13.55,0,0,0,28.45,48c.31.43.29.57-.17.83-1.77,1-3.51,2-5.25,3a.71.71,0,0,1-.82,0L.43,39.3A.78.78,0,0,1,0,38.53Q0,26,0,13.48a.81.81,0,0,1,.46-.81Q11.31,6.43,22.13.16a.84.84,0,0,1,1,0c2.14,1.26,4.3,2.49,6.45,3.74Z"/><path class="cls-1" d="M39.6,27.14A12.36,12.36,0,1,0,52,39.55,12.39,12.39,0,0,0,39.6,27.14Z"/><path class="cls-2" d="M44.15,45.16h-.21v-.51a4.14,4.14,0,0,0-1.22-2.93L40.5,39.5l2.22-2.21a4.14,4.14,0,0,0,1.22-2.93v-.52h.21a.65.65,0,1,0,0-1.3H35a.65.65,0,0,0,0,1.3h.22v.52a4.13,4.13,0,0,0,1.21,2.93l2.22,2.21-2.22,2.22a4.13,4.13,0,0,0-1.21,2.93v.51H35a.66.66,0,0,0,0,1.31h9.14a.66.66,0,1,0,0-1.31Zm-6.79-8.8a2.83,2.83,0,0,1-.83-2v-.52h6.1v.52a2.83,2.83,0,0,1-.83,2l-2.22,2.22h0Zm5.27,8.8h-6.1v-.51a2.81,2.81,0,0,1,.83-2l2.22-2.22,2.22,2.21a2.85,2.85,0,0,1,.83,2Z"/></g></g></svg>