<svg width="24" height="24" viewBox="0 0 24 24" fill="none" xmlns="http://www.w3.org/2000/svg">
<g clip-path="url(#clip0_207_74)">
<path fill-rule="evenodd" clip-rule="evenodd" d="M10.7501 2.56711C11.1301 2.34769 11.5612 2.23218 12.0001 2.23218C12.4389 2.23218 12.87 2.34769 13.2501 2.56711L19.5441 6.20111C19.9241 6.42053 20.2397 6.73611 20.4591 7.11615C20.6785 7.49619 20.794 7.92728 20.7941 8.36611V15.6341C20.794 16.0729 20.6785 16.504 20.4591 16.8841C20.2397 17.2641 19.9241 17.5797 19.5441 17.7991L13.2501 21.4331C12.87 21.6525 12.4389 21.7681 12.0001 21.7681C11.5612 21.7681 11.1301 21.6525 10.7501 21.4331L4.45605 17.7991C4.07602 17.5797 3.76043 17.2641 3.54101 16.8841C3.32159 16.504 3.20607 16.0729 3.20605 15.6341V8.36611C3.20607 7.92728 3.32159 7.49619 3.54101 7.11615C3.76043 6.73611 4.07602 6.42053 4.45605 6.20111L10.7501 2.56711ZM8.01905 8.54711L13.8171 5.20411L15.8181 6.35911L10.0201 9.70211L8.01905 8.54711Z" fill="white"/>
</g>
<defs>
<clipPath id="clip0_207_74">
<rect width="24" height="24" fill="white"/>
</clipPath>
</defs>
</svg>
