<svg xmlns="http://www.w3.org/2000/svg" viewBox="0 0 52.1 52">
    <defs>
        <style>
            .cls-1 {
                fill: #ffb21e;
            }
        </style>
    </defs>
    <g id="Layer_2" data-name="Layer 2">
        <g id="Layer_1-2" data-name="Layer 1">
            <path class="cls-1"
                d="M30.12,4.24,19.19,10.55Q13.61,13.77,8,17a.81.81,0,0,0-.47.82c0,1.73,0,3.46,0,5.19,0,.28,0,.49.31.66,2.29,1.31,4.58,2.64,6.87,4,.07,0,.15,0,.28.08,0-1.83,0-3.62,0-5.4a1.08,1.08,0,0,1,.61-1.11Q26.36,15.05,37.05,8.84a.93.93,0,0,1,1.09,0q3.24,1.9,6.51,3.76a.85.85,0,0,1,.51.85q0,6.27,0,12.53c0,.61-.16.6-.64.43A14,14,0,0,0,26,36.65,13.53,13.53,0,0,0,28.41,48c.3.42.29.57-.18.82-1.76,1-3.5,2-5.24,3a.69.69,0,0,1-.82,0Q11.31,45.5.43,39.24A.78.78,0,0,1,0,38.47Q0,26,0,13.46a.81.81,0,0,1,.46-.81Q11.29,6.43,22.1.16a.83.83,0,0,1,1,0c2.14,1.26,4.3,2.49,6.45,3.73Z" />
            <path class="cls-1"
                d="M39.78,27.31A12.35,12.35,0,1,0,52.1,39.7,12.38,12.38,0,0,0,39.78,27.31Zm.84,12.13c0,.78-.29,1.07-1.06,1.07-1.73,0-3.47,0-5.2,0-.67,0-1.09-.35-1.08-.88s.42-.84,1.07-.84c1.33,0,2.65,0,4,0,.45,0,.59-.1.59-.57,0-2.4,0-4.81,0-7.21,0-.63.29-1,.79-1s.92.33.93,1c0,1.45,0,2.89,0,4.34Z" />
        </g>
    </g>
</svg>