<svg width="24" height="45" viewBox="0 0 24 45" fill="none" xmlns="http://www.w3.org/2000/svg">
    <g clip-path="url(#clip0_139_75)">
        <path
            d="M4.25 0C3.12283 0 2.04183 0.503738 1.2448 1.4004C0.447766 2.29705 0 3.51318 0 4.78125V40.2188C0 41.4868 0.447766 42.7029 1.2448 43.5996C2.04183 44.4963 3.12283 45 4.25 45H19.75C20.8772 45 21.9582 44.4963 22.7552 43.5996C23.5522 42.7029 24 41.4868 24 40.2188V4.78125C24 3.51318 23.5522 2.29705 22.7552 1.4004C21.9582 0.503738 20.8772 0 19.75 0H4.25ZM9.25 39.4375H14.75C15.0815 39.4375 15.3995 39.5857 15.6339 39.8494C15.8683 40.1131 16 40.4708 16 40.8438C16 41.2167 15.8683 41.5744 15.6339 41.8381C15.3995 42.1018 15.0815 42.25 14.75 42.25H9.25C8.91848 42.25 8.60054 42.1018 8.36612 41.8381C8.1317 41.5744 8 41.2167 8 40.8438C8 40.4708 8.1317 40.1131 8.36612 39.8494C8.60054 39.5857 8.91848 39.4375 9.25 39.4375Z"
            fill="white" />
    </g>
    <defs>
        <clipPath id="clip0_139_75">
            <rect width="24" height="45" fill="white" />
        </clipPath>
    </defs>
</svg>