<svg width="16" height="17" viewBox="0 0 16 17" fill="none" xmlns="http://www.w3.org/2000/svg">
<g clip-path="url(#clip0_172_89)">
<path fill-rule="evenodd" clip-rule="evenodd" d="M7.32 0.849288C8.70071 0.731459 10.0884 0.974294 11.347 1.55401C12.6056 2.13372 13.6921 3.03042 14.5 4.15629V2.57029C14.5 2.37138 14.579 2.18061 14.7197 2.03996C14.8603 1.89931 15.0511 1.82029 15.25 1.82029C15.4489 1.82029 15.6397 1.89931 15.7803 2.03996C15.921 2.18061 16 2.37138 16 2.57029V6.82029H11.75C11.5511 6.82029 11.3603 6.74127 11.2197 6.60062C11.079 6.45997 11 6.2692 11 6.07029C11 5.87138 11.079 5.68061 11.2197 5.53996C11.3603 5.39931 11.5511 5.32029 11.75 5.32029H13.477C12.7931 4.25019 11.8107 3.40388 10.6512 2.88588C9.4917 2.36788 8.20584 2.2009 6.95248 2.40555C5.69912 2.61021 4.53316 3.17754 3.59864 4.03747C2.66412 4.89739 2.00198 6.01224 1.694 7.24429C1.67128 7.34107 1.62955 7.43237 1.57123 7.51288C1.51291 7.59339 1.43917 7.6615 1.35429 7.71325C1.26942 7.76501 1.1751 7.79937 1.07682 7.81435C0.97854 7.82932 0.878265 7.82461 0.781825 7.80048C0.685385 7.77635 0.594703 7.7333 0.515053 7.67381C0.435404 7.61432 0.368375 7.53959 0.317865 7.45397C0.267355 7.36834 0.234371 7.27353 0.220832 7.17505C0.207293 7.07656 0.213469 6.97637 0.239 6.88029C0.643544 5.26271 1.5434 3.81197 2.81279 2.73084C4.08218 1.6497 5.65766 0.992219 7.319 0.850288L7.32 0.849288ZM3.92 15.7013C4.99199 16.3367 6.19758 16.7128 7.44068 16.7998C8.68378 16.8868 9.93001 16.6822 11.08 16.2022C12.23 15.7223 13.252 14.9804 14.0646 14.0356C14.8771 13.0908 15.4577 11.9692 15.76 10.7603C15.805 10.5685 15.7728 10.3667 15.6702 10.1985C15.5676 10.0302 15.403 9.90914 15.2119 9.86133C15.0207 9.81351 14.8185 9.84282 14.6488 9.94292C14.4791 10.043 14.3556 10.2059 14.305 10.3963C13.9969 11.6281 13.3347 12.7426 12.4002 13.6023C11.4658 14.4621 10.3 15.0292 9.04688 15.2339C7.79373 15.4385 6.50809 15.2716 5.34871 14.7539C4.18933 14.2361 3.20699 13.3901 2.523 12.3203H4.25C4.44891 12.3203 4.63968 12.2413 4.78033 12.1006C4.92098 11.96 5 11.7692 5 11.5703C5 11.3714 4.92098 11.1806 4.78033 11.04C4.63968 10.8993 4.44891 10.8203 4.25 10.8203H0V15.0703C0 15.2692 0.0790176 15.46 0.21967 15.6006C0.360322 15.7413 0.551088 15.8203 0.75 15.8203C0.948912 15.8203 1.13968 15.7413 1.28033 15.6006C1.42098 15.46 1.5 15.2692 1.5 15.0703V13.4843C2.14478 14.3826 2.96879 15.1375 3.92 15.7013Z" fill="white"/>
</g>
<defs>
<clipPath id="clip0_172_89">
<rect width="16" height="16" fill="white" transform="translate(0 0.820312)"/>
</clipPath>
</defs>
</svg>
